<?xml version="1.0" standalone="no"?>
<!DOCTYPE svg PUBLIC "-//W3C//DTD SVG 20010904//EN"
 "http://www.w3.org/TR/2001/REC-SVG-20010904/DTD/svg10.dtd">
<svg version="1.0" xmlns="http://www.w3.org/2000/svg"
 width="156.000000pt" height="163.000000pt" viewBox="0 0 156.000000 163.000000"
 preserveAspectRatio="xMidYMid meet">

<g transform="translate(0.000000,163.000000) scale(0.100000,-0.100000)"
fill="#000000" stroke="none">
<path d="M461 1580 c-198 -54 -356 -209 -415 -409 -21 -73 -21 -239 0 -312 37
-123 111 -232 208 -305 179 -135 402 -159 605 -64 l65 31 231 -231 c153 -153
237 -230 251 -230 33 0 134 104 134 137 0 22 -42 69 -226 254 l-227 227 25 44
c58 99 72 154 72 288 1 106 -3 135 -22 192 -60 172 -198 309 -372 368 -93 32
-232 36 -329 10z m230 -110 c170 -32 315 -165 361 -328 105 -381 -282 -708
-640 -542 -79 37 -170 123 -210 198 -42 81 -56 149 -50 254 5 77 11 99 43 164
93 189 294 292 496 254z"/>
</g>
</svg>
